# xmcd
#
# Track frame offsets: 
#        183
#        12780
#        25960
#        39060
#        51108
#        66040
#        79778
#        92783
#        108708
#        120783
#        135625
#        149168
#        164213
#        180828
#        196505
#        213830
#        228875
#
# Disc length: 3285 seconds
#
# Revision: 4
# Processed by: cddbd v1.5.1PL0 Copyright (c) Steve Scherf et al.
# Submitted via: ExactAudioCopy v0.95b1
#
DISCID=d80cd311
DTITLE=Enrico Macias - 17 Chansons d'Or
DYEAR=1987
DGENRE=Chanson
TTITLE0=Adieu mon pays
TTITLE1=Enfants de tous pays
TTITLE2=Paris tu m'as pris dans tes bras
TTITLE3=Les gens du nord
TTITLE4=Noel a Jerusalem
TTITLE5=Au talon de ses souliers
TTITLE6=Malheur a celui qui blesse un enfant
TTITLE7=Le mendiant de l'amour
TTITLE8=Juif Espagnol
TTITLE9=Ouvre-moi la porte
TTITLE10=La France de mon enfance
TTITLE11=Un berger vient de tomber
TTITLE12=Pour toutes ces raisons je t'aime
TTITLE13=Deux ailes et trois plumes
TTITLE14=Generosite
TTITLE15=Aime-moi je t'aime
TTITLE16=Mon chanteur prefere
EXTD=25eme Anniversaire
EXTT0=1962
EXTT1=1963
EXTT2=1964
EXTT3=1967
EXTT4=1968
EXTT5=1968
EXTT6=1975
EXTT7=1980
EXTT8=1980
EXTT9=1980
EXTT10=1980
EXTT11=1981
EXTT12=1980
EXTT13=1983
EXTT14=1984
EXTT15=1986
EXTT16=1986
PLAYORDER=
